<?xml version="1.0" encoding="utf-8"?>
<!-- Generator: Adobe Illustrator 19.0.0, SVG Export Plug-In . SVG Version: 6.00 Build 0)  -->
<svg version="1.1" id="Layer_1" xmlns="http://www.w3.org/2000/svg" xmlns:xlink="http://www.w3.org/1999/xlink" x="0px" y="0px"
	 viewBox="0 0 152.75 93.1666641" style="enable-background:new 0 0 152.75 93.1666641;" xml:space="preserve">
<style type="text/css">
	.st0{fill:#00AEEF;}
	.st1{fill:#010101;}
	.st2{fill:none;stroke:#010101;stroke-miterlimit:10;}
	.st3{fill:none;stroke:#000000;stroke-miterlimit:10;}
</style>
<polygon id="XMLID_6_" class="st0" points="94.5374146,56.8493004 110.4505386,22.1067848 110.4505386,75.2307281 
	94.5374146,75.2307281 "/>
<polygon id="XMLID_19_" class="st0" points="78.6242905,55.6006241 78.6242905,75.2307281 94.5374146,75.2307281 
	94.5374146,56.8493004 "/>
<polygon id="XMLID_10_" class="st0" points="62.7111664,40.8546104 62.7111664,75.2307281 78.6242905,75.2307281 
	78.6242905,55.6006241 "/>
<polygon id="XMLID_9_" class="st0" points="46.7980423,27.4484062 46.7980423,75.2307281 62.7111664,75.2307281 
	62.7111664,40.8546104 "/>
<polygon id="XMLID_7_" class="st0" points="30.8849182,28.0798779 30.8849182,75.2307281 46.7980423,75.2307281 
	46.7980423,27.4484062 "/>
<polygon id="XMLID_2_" class="st0" points="14.971796,75.2307281 14.971796,50.7924423 30.8849182,28.0798779 
	30.8849182,75.2307281 "/>
<g id="XMLID_4_">
	<g id="XMLID_5_">
		<path id="XMLID_75_" class="st1" d="M147.5380859,66.8110352c0.1904297,0.2036133,0.3349609,0.4072266,0.4326172,0.6108398
			c0.0693359,0.140625,0.1845703,0.5107422,0.34375,1.109375l0.5146484-0.7749023
			c0.1357422-0.1879883,0.3007813-0.3666992,0.4960938-0.5371094c0.1943359-0.1704102,0.3662109-0.2866211,0.5136719-0.3496094
			c0.09375-0.0390625,0.1962891-0.0585938,0.3095703-0.0585938c0.1669922,0,0.3007813,0.0449219,0.4003906,0.1352539
			c0.0986328,0.0898438,0.1484375,0.199707,0.1484375,0.3286133c0,0.1489258-0.0292969,0.2504883-0.0878906,0.3051758
			c-0.1083984,0.0981445-0.2333984,0.1469727-0.3730469,0.1469727c-0.0820313,0-0.1699219-0.0175781-0.2626953-0.0527344
			c-0.1835938-0.0625-0.3056641-0.0942383-0.3681641-0.0942383c-0.09375,0-0.2041016,0.0551758-0.3330078,0.1645508
			c-0.2412109,0.2036133-0.5292969,0.597168-0.8642578,1.1801758l0.4785156,2.0195313
			c0.0742188,0.3095703,0.1367188,0.4951172,0.1875,0.5556641c0.0498047,0.0605469,0.1005859,0.0908203,0.1513672,0.0908203
			c0.0820313,0,0.1777344-0.0449219,0.2861328-0.1347656c0.2138672-0.1806641,0.3974609-0.4150391,0.5488281-0.7050781
			l0.2050781,0.1054688c-0.2451172,0.4619141-0.5566406,0.8457031-0.9345703,1.1513672
			c-0.2138672,0.171875-0.3955078,0.2578125-0.5429688,0.2578125c-0.21875,0-0.3916016-0.1230469-0.5205078-0.3691406
			c-0.0820313-0.1533203-0.25-0.8105469-0.5078125-1.9726563c-0.6064453,1.0605469-1.09375,1.7431641-1.4599609,2.0488281
			c-0.2373047,0.1953125-0.4667969,0.2929688-0.6884766,0.2929688c-0.15625,0-0.2978516-0.0566406-0.4267578-0.1699219
			c-0.0927734-0.0859375-0.1396484-0.2011719-0.1396484-0.3466797c0-0.1289063,0.0429688-0.2363281,0.1279297-0.3222656
			c0.0859375-0.0869141,0.1914063-0.1298828,0.3154297-0.1298828c0.125,0,0.2568359,0.0625,0.3974609,0.1884766
			c0.1005859,0.0898438,0.1787109,0.1347656,0.2333984,0.1347656c0.046875,0,0.1074219-0.03125,0.1806641-0.09375
			c0.1835938-0.1494141,0.4326172-0.4697266,0.7480469-0.9628906s0.5214844-0.8496094,0.6191406-1.0693359
			c-0.2412109-0.9511719-0.3720703-1.4541016-0.3916016-1.5087891c-0.0898438-0.2543945-0.2060547-0.4345703-0.3505859-0.5400391
			c-0.1435547-0.105957-0.3564453-0.1586914-0.6367188-0.1586914c-0.0888672,0-0.1923828,0.0039063-0.3085938,0.0117188v-0.2114258
			L147.5380859,66.8110352z"/>
	</g>
</g>
<g id="XMLID_1_">
	<g id="XMLID_46_">
		<g id="XMLID_47_">
			<polygon id="XMLID_48_" points="133.2262268,75.7308655 133.2262268,77.6491394 142.25,75.2328186 133.2262268,72.8123169 
				133.2262268,74.7307434 1.6666718,74.7307434 1.6666718,75.7308655 			"/>
		</g>
	</g>
</g>
<g id="XMLID_3_">
	<g id="XMLID_35_">
		<g id="XMLID_43_">
			<polygon id="XMLID_44_" points="7.8320465,20.3570862 9.7503204,20.3570862 7.3339996,11.333313 4.9135132,20.3570862 
				6.8319397,20.3570862 6.8319397,81.4151611 7.8320465,81.4151611 			"/>
		</g>
	</g>
</g>
<path id="XMLID_8_" class="st2" d="M14.971796,50.7924423c10.9834709-25.0251102,19.1494656-26.765255,31.8224316-23.3463593
	c6.3846893,1.7224541,14.2609329,10.5467758,15.9156914,13.4059906
	c2.7132378,4.6881371,11.3460045,13.2573395,15.9143715,14.7485504c3.8253326,1.2486763,10.6632767,3.1857948,15.9131241,1.2486763
	c5.6425018-2.0820084,12.6839066-23.3237762,15.9134064-34.7423782"/>
<line id="XMLID_20_" class="st2" x1="14.971796" y1="50.7924423" x2="14.971796" y2="75.2307281"/>
<line id="XMLID_21_" class="st2" x1="30.8849182" y1="28.0798779" x2="30.8849182" y2="75.2307281"/>
<line id="XMLID_22_" class="st2" x1="46.7980423" y1="27.4484062" x2="46.7980423" y2="75.2307281"/>
<line id="XMLID_23_" class="st2" x1="62.7111664" y1="40.8546104" x2="62.7111664" y2="75.2307281"/>
<line id="XMLID_24_" class="st2" x1="78.6242905" y1="55.6006241" x2="78.6242905" y2="75.2307281"/>
<line id="XMLID_25_" class="st2" x1="94.5374146" y1="56.8493004" x2="94.5374146" y2="75.2307281"/>
<line id="XMLID_26_" class="st2" x1="110.4505386" y1="22.1067848" x2="110.4505386" y2="75.2307281"/>
<g id="XMLID_12_">
	<g id="XMLID_14_">
		<path id="XMLID_71_" class="st1" d="M27.0717773,12.0708008v0.2148438
			c-0.5883789-0.2939453-1.0795898-0.6386719-1.4731445-1.0332031c-0.5610352-0.5615234-0.9936523-1.2246094-1.2978516-1.9873047
			c-0.3037109-0.7626953-0.4555664-1.5546875-0.4555664-2.375c0-1.2011719,0.2978516-2.2958984,0.894043-3.2856445
			c0.5966797-0.9892578,1.3740234-1.6972656,2.3325195-2.1230469v0.2436523
			c-0.4790039,0.2636719-0.8730469,0.6235352-1.1806641,1.0805664c-0.3081055,0.4570313-0.5380859,1.0361328-0.6899414,1.7368164
			c-0.1518555,0.7011719-0.2280273,1.4331055-0.2280273,2.1958008c0,0.8295898,0.0644531,1.5825195,0.1928711,2.2602539
			c0.1015625,0.5341797,0.2241211,0.9628906,0.3686523,1.2861328c0.144043,0.3232422,0.3378906,0.6337891,0.581543,0.9326172
			C26.3598633,11.5151367,26.6782227,11.800293,27.0717773,12.0708008z"/>
		<path id="XMLID_73_" class="st1" d="M34.0854492,1.7250977V1.4814453c0.5927734,0.2900391,1.0859375,0.6328125,1.4794922,1.027832
			c0.5566406,0.5654297,0.9873047,1.2290039,1.2919922,1.9897461c0.3037109,0.7612305,0.4560547,1.5537109,0.4560547,2.3793945
			c0,1.2001953-0.2978516,2.2949219-0.8916016,3.2841797c-0.5947266,0.9892578-1.3730469,1.6972656-2.3359375,2.1230469v-0.2148438
			c0.4794922-0.2666016,0.8740234-0.6279297,1.1845703-1.0830078c0.3095703-0.4550781,0.5390625-1.0341797,0.6894531-1.7373047
			c0.1494141-0.7021484,0.2246094-1.4355469,0.2246094-2.1982422c0-0.8251953-0.0634766-1.578125-0.1923828-2.2597656
			c-0.0976563-0.534668-0.2197266-0.9624023-0.3652344-1.2836914c-0.1464844-0.3217773-0.3408203-0.6313477-0.5820313-0.9296875
			C34.8032227,2.28125,34.4829102,1.996582,34.0854492,1.7250977z"/>
	</g>
	<g id="XMLID_13_">
		<path id="XMLID_59_" class="st1" d="M20.7304688,4.6240234l-0.1049805,0.3833008h-0.8535156l-0.6430664,2.5390625
			c-0.284668,1.1191406-0.5712891,1.984375-0.859375,2.5957031c-0.4091797,0.8642578-0.8496094,1.4599609-1.3212891,1.7900391
			c-0.3583984,0.2509766-0.7167969,0.3769531-1.0756836,0.3769531c-0.2338867,0-0.4326172-0.0693359-0.5961914-0.2089844
			c-0.1206055-0.0966797-0.1811523-0.2226563-0.1811523-0.3779297c0-0.1240234,0.0498047-0.2314453,0.1489258-0.3222656
			c0.0996094-0.0908203,0.2211914-0.1367188,0.3652344-0.1367188c0.1054688,0,0.1943359,0.0332031,0.2661133,0.0996094
			c0.0722656,0.0654297,0.1083984,0.140625,0.1083984,0.2265625c0,0.0849609-0.0410156,0.1640625-0.1230469,0.2373047
			c-0.0620117,0.0546875-0.0932617,0.0957031-0.0932617,0.1220703c0,0.0351563,0.0136719,0.0625,0.0410156,0.0820313
			c0.034668,0.0263672,0.0893555,0.0400391,0.1635742,0.0400391c0.1674805,0,0.34375-0.0517578,0.5288086-0.15625
			s0.3500977-0.2607422,0.4941406-0.4677734s0.2807617-0.5068359,0.4091797-0.8974609
			c0.0546875-0.1630859,0.2006836-0.6992188,0.4384766-1.609375l1.0170898-3.9326172h-1.0170898l0.081543-0.3833008
			c0.3237305,0,0.5498047-0.0224609,0.6782227-0.0668945c0.1289063-0.0444336,0.246582-0.1298828,0.3540039-0.2553711
			c0.1069336-0.1259766,0.2460938-0.3613281,0.4179688-0.7060547c0.2294922-0.4648438,0.449707-0.824707,0.6601563-1.0805664
			c0.2885742-0.3447266,0.5913086-0.6030273,0.9091797-0.7753906s0.6166992-0.2583008,0.8974609-0.2583008
			c0.2958984,0,0.5336914,0.0742188,0.7128906,0.2236328c0.1791992,0.1489258,0.269043,0.3105469,0.269043,0.4848633
			c0,0.1357422-0.0449219,0.25-0.1342773,0.3427734C22.5991211,2.6254883,22.484375,2.671875,22.34375,2.671875
			c-0.1206055,0-0.2192383-0.034668-0.2949219-0.1044922c-0.0761719-0.0693359-0.1142578-0.152832-0.1142578-0.2495117
			c0-0.0620117,0.0253906-0.1386719,0.0761719-0.2294922s0.0761719-0.1518555,0.0761719-0.1831055
			c0-0.0541992-0.0175781-0.0947266-0.0527344-0.1220703c-0.0507813-0.0385742-0.125-0.0581055-0.222168-0.0581055
			c-0.2456055,0-0.4658203,0.0776367-0.6606445,0.2324219C20.8901367,2.1630859,20.65625,2.484375,20.449707,2.921875
			c-0.1049805,0.2285156-0.2978516,0.7958984-0.5786133,1.7021484H20.7304688z"/>
		<path id="XMLID_61_" class="st1" d="M30.293457,4.484375c0.1914063,0.2016602,0.3349609,0.402832,0.4326172,0.6044922
			c0.0703125,0.1391602,0.1855469,0.5053711,0.3447266,1.0976563l0.5146484-0.7666016
			c0.1367188-0.1860352,0.3017578-0.3632813,0.4970703-0.5317383c0.1943359-0.168457,0.3662109-0.2836914,0.5146484-0.3457031
			c0.0927734-0.0385742,0.1962891-0.0581055,0.3095703-0.0581055c0.1669922,0,0.3007813,0.0449219,0.4003906,0.1337891
			s0.1494141,0.1972656,0.1494141,0.3251953c0,0.1474609-0.0292969,0.2480469-0.0878906,0.3022461
			c-0.109375,0.0966797-0.234375,0.1450195-0.3740234,0.1450195c-0.0820313,0-0.1699219-0.0170898-0.2636719-0.0522461
			c-0.1826172-0.0620117-0.3056641-0.0927734-0.3681641-0.0927734c-0.09375,0-0.2041016,0.0541992-0.3330078,0.1625977
			c-0.2421875,0.2011719-0.5302734,0.5908203-0.8652344,1.1674805l0.4794922,1.9980469
			c0.0742188,0.3066406,0.1357422,0.4892578,0.1865234,0.5488281c0.0507813,0.0605469,0.1015625,0.0908203,0.1523438,0.0908203
			c0.0820313,0,0.1777344-0.0449219,0.2861328-0.1337891c0.2148438-0.1777344,0.3974609-0.4101563,0.5498047-0.6972656
			l0.2050781,0.1044922c-0.2460938,0.4570313-0.5576172,0.8369141-0.9355469,1.1386719
			c-0.2148438,0.1699219-0.3955078,0.2558594-0.5439453,0.2558594c-0.2177734,0-0.3916016-0.1220703-0.5205078-0.3662109
			c-0.0810547-0.1513672-0.2509766-0.8017578-0.5078125-1.9511719c-0.6083984,1.0488281-1.0957031,1.7246094-1.4619141,2.0263672
			c-0.2373047,0.1943359-0.4677734,0.2910156-0.6894531,0.2910156c-0.15625,0-0.2988281-0.0566406-0.4267578-0.1689453
			c-0.09375-0.0849609-0.140625-0.1992188-0.140625-0.3427734c0-0.1279297,0.0429688-0.234375,0.1289063-0.3193359
			s0.1904297-0.1279297,0.3154297-0.1279297s0.2568359,0.0625,0.3974609,0.1865234
			c0.1015625,0.0888672,0.1796875,0.1328125,0.2333984,0.1328125c0.046875,0,0.1074219-0.0302734,0.1816406-0.0927734
			c0.1835938-0.1464844,0.4326172-0.4648438,0.7480469-0.9521484c0.3154297-0.4882813,0.5224609-0.8408203,0.6201172-1.0576172
			c-0.2421875-0.940918-0.3720703-1.4384766-0.3916016-1.4926758c-0.0898438-0.2519531-0.2070313-0.4301758-0.3505859-0.534668
			c-0.1445313-0.1044922-0.3574219-0.1567383-0.6376953-0.1567383c-0.0898438,0-0.1933594,0.0039063-0.3095703,0.0117188V4.7573242
			L30.293457,4.484375z"/>
	</g>
</g>
<g id="XMLID_29_">
	<g id="XMLID_31_">
		<path id="XMLID_57_" class="st1" d="M16.9008789,82.7988281l1.1289063-0.5458984h0.1132813v3.8808594
			c0,0.2578125,0.0107422,0.4189453,0.0322266,0.4814453c0.0214844,0.0634766,0.0664063,0.1123047,0.1357422,0.1464844
			c0.0683594,0.0332031,0.2070313,0.0527344,0.4169922,0.0576172v0.125h-1.7451172v-0.125
			c0.21875-0.0048828,0.3603516-0.0234375,0.4248047-0.0566406c0.0634766-0.0322266,0.1074219-0.0761719,0.1328125-0.1318359
			s0.0380859-0.2207031,0.0380859-0.4970703v-2.4814453c0-0.3339844-0.0117188-0.5488281-0.0341797-0.6435547
			c-0.0166016-0.0722656-0.0449219-0.1259766-0.0878906-0.1591797c-0.0419922-0.0341797-0.0927734-0.0507813-0.1523438-0.0507813
			c-0.0839844,0-0.2011719,0.0341797-0.3515625,0.1044922L16.9008789,82.7988281z"/>
	</g>
	<g id="XMLID_30_">
		<path id="XMLID_41_" class="st1" d="M13.6728516,78.5439453c0.1933594,0.203125,0.3393555,0.4072266,0.4379883,0.6103516
			c0.0712891,0.140625,0.1875,0.5097656,0.3491211,1.1083984l0.5209961-0.7744141
			c0.1381836-0.1875,0.3056641-0.3662109,0.5029297-0.5361328c0.1972656-0.1708984,0.3710938-0.2871094,0.5214844-0.3496094
			c0.0947266-0.0390625,0.1992188-0.0585938,0.3134766-0.0585938c0.1699219,0,0.3046875,0.0449219,0.4052734,0.1347656
			s0.1513672,0.1992188,0.1513672,0.3291016c0,0.1484375-0.0302734,0.25-0.0888672,0.3046875
			c-0.1113281,0.0976563-0.2373047,0.1464844-0.3789063,0.1464844c-0.0830078,0-0.171875-0.0175781-0.2666016-0.0527344
			c-0.1855469-0.0625-0.3095703-0.09375-0.3730469-0.09375c-0.0947266,0-0.2070313,0.0546875-0.3369141,0.1640625
			c-0.2451172,0.203125-0.5371094,0.5957031-0.8764648,1.1787109l0.4853516,2.0166016
			c0.0751953,0.3085938,0.1381836,0.4941406,0.1899414,0.5546875c0.0507813,0.0605469,0.1015625,0.0908203,0.1533203,0.0908203
			c0.0830078,0,0.1796875-0.0449219,0.2900391-0.1357422c0.2167969-0.1796875,0.4023438-0.4140625,0.5566406-0.703125
			l0.2070313,0.1054688c-0.2490234,0.4609375-0.5644531,0.8447266-0.9472656,1.1494141
			c-0.2167969,0.171875-0.4003906,0.2578125-0.550293,0.2578125c-0.2207031,0-0.3964844-0.1230469-0.5268555-0.3691406
			c-0.0825195-0.1523438-0.2543945-0.8095703-0.5146484-1.9707031c-0.6157227,1.0595703-1.1088867,1.7421875-1.4799805,2.046875
			c-0.2407227,0.1953125-0.4731445,0.2929688-0.6982422,0.2929688c-0.1577148,0-0.3017578-0.0566406-0.4321289-0.1699219
			c-0.0947266-0.0859375-0.1420898-0.2011719-0.1420898-0.3457031c0-0.1289063,0.043457-0.2363281,0.1303711-0.3232422
			c0.0869141-0.0859375,0.1933594-0.1289063,0.3193359-0.1289063c0.1264648,0,0.2607422,0.0625,0.402832,0.1884766
			c0.1025391,0.0898438,0.1811523,0.1347656,0.2368164,0.1347656c0.0473633,0,0.1083984-0.03125,0.1831055-0.09375
			c0.1855469-0.1494141,0.4379883-0.4697266,0.7578125-0.9619141c0.3198242-0.4931641,0.5288086-0.8486328,0.6274414-1.0673828
			c-0.2446289-0.9492188-0.3769531-1.4521484-0.3964844-1.5068359c-0.0908203-0.2539063-0.2094727-0.4335938-0.3554688-0.5390625
			s-0.3608398-0.1582031-0.6450195-0.1582031c-0.0908203,0-0.1953125,0.0039063-0.3134766,0.0117188v-0.2119141
			L13.6728516,78.5439453z"/>
	</g>
</g>
<g id="XMLID_32_">
	<g id="XMLID_51_">
		<path id="XMLID_39_" class="st1" d="M122.7402344,82.7988281l1.1220703-0.5458984h0.1123047v3.8808594
			c0,0.2578125,0.0107422,0.4189453,0.0322266,0.4814453c0.0214844,0.0634766,0.0664063,0.1123047,0.1347656,0.1464844
			c0.0673828,0.0332031,0.2060547,0.0527344,0.4150391,0.0576172v0.125h-1.7353516v-0.125
			c0.2177734-0.0048828,0.3583984-0.0234375,0.421875-0.0566406c0.0634766-0.0322266,0.1083984-0.0761719,0.1328125-0.1318359
			c0.0253906-0.0556641,0.0371094-0.2207031,0.0371094-0.4970703v-2.4814453c0-0.3339844-0.0107422-0.5488281-0.0332031-0.6435547
			c-0.0166016-0.0722656-0.0449219-0.1259766-0.0869141-0.1591797c-0.0419922-0.0341797-0.0927734-0.0507813-0.1513672-0.0507813
			c-0.0839844,0-0.2011719,0.0341797-0.3505859,0.1044922L122.7402344,82.7988281z"/>
	</g>
	<g id="XMLID_50_">
		<path id="XMLID_37_" class="st1" d="M114.5683594,82.3476563l1.4257813,3.6035156l0.7714844-2.6914063
			c0.0634766-0.2216797,0.0957031-0.3935547,0.0957031-0.515625c0-0.0839844-0.0292969-0.1494141-0.0888672-0.1962891
			c-0.0585938-0.0478516-0.1689453-0.0712891-0.3291016-0.0712891c-0.0273438,0-0.0566406-0.0009766-0.0859375-0.0039063
			l0.0371094-0.125h1.4833984l-0.0410156,0.125c-0.1542969-0.0019531-0.2685547,0.0136719-0.3427734,0.0478516
			c-0.1074219,0.0478516-0.1865234,0.1083984-0.2382813,0.1826172c-0.0732422,0.1064453-0.1464844,0.2919922-0.2216797,0.5566406
			l-1.0849609,3.7900391h-0.1220703l-1.5341797-3.8789063l-0.8193359,2.8652344
			c-0.0615234,0.2167969-0.0917969,0.3828125-0.0917969,0.4980469c0,0.0859375,0.0273438,0.1503906,0.0830078,0.1953125
			c0.0556641,0.0439453,0.1875,0.0732422,0.3964844,0.0898438l-0.0341797,0.125h-1.4492188l0.0478516-0.125
			c0.1816406-0.0048828,0.3027344-0.0205078,0.3642578-0.0478516c0.0927734-0.0410156,0.1621094-0.09375,0.2070313-0.1591797
			c0.0654297-0.0996094,0.1396484-0.2919922,0.2207031-0.5761719l0.9150391-3.1972656
			c-0.0878906-0.1357422-0.1826172-0.2285156-0.2832031-0.2792969c-0.1015625-0.0507813-0.2587891-0.0800781-0.4716797-0.0869141
			l0.0371094-0.125H114.5683594z"/>
	</g>
	<g id="XMLID_49_">
		<path id="XMLID_27_" class="st1" d="M109.1289063,78.5439453c0.1923828,0.203125,0.3378906,0.4072266,0.4355469,0.6103516
			c0.0703125,0.140625,0.1865234,0.5097656,0.3476563,1.1083984l0.5175781-0.7744141
			c0.1367188-0.1875,0.3037109-0.3662109,0.5-0.5361328c0.1962891-0.1708984,0.3681641-0.2871094,0.5175781-0.3496094
			c0.09375-0.0390625,0.1982422-0.0585938,0.3115234-0.0585938c0.1689453,0,0.3027344,0.0449219,0.4033203,0.1347656
			c0.0996094,0.0898438,0.1494141,0.1992188,0.1494141,0.3291016c0,0.1484375-0.0292969,0.25-0.0878906,0.3046875
			c-0.109375,0.0976563-0.2353516,0.1464844-0.3759766,0.1464844c-0.0830078,0-0.1708984-0.0175781-0.265625-0.0527344
			c-0.1835938-0.0625-0.3076172-0.09375-0.3701172-0.09375c-0.09375,0-0.2060547,0.0546875-0.3349609,0.1640625
			c-0.2441406,0.203125-0.5341797,0.5957031-0.8710938,1.1787109l0.4824219,2.0166016
			c0.0742188,0.3085938,0.1367188,0.4941406,0.1884766,0.5546875c0.0507813,0.0605469,0.1015625,0.0908203,0.1523438,0.0908203
			c0.0830078,0,0.1787109-0.0449219,0.2890625-0.1357422c0.2148438-0.1796875,0.3994141-0.4140625,0.5527344-0.703125
			l0.2060547,0.1054688c-0.2470703,0.4609375-0.5615234,0.8447266-0.9414063,1.1494141
			c-0.2158203,0.171875-0.3984375,0.2578125-0.546875,0.2578125c-0.2197266,0-0.3945313-0.1230469-0.5244141-0.3691406
			c-0.0820313-0.1523438-0.2529297-0.8095703-0.5117188-1.9707031c-0.6113281,1.0595703-1.1015625,1.7421875-1.4707031,2.046875
			c-0.2392578,0.1953125-0.4707031,0.2929688-0.6943359,0.2929688c-0.15625,0-0.2998047-0.0566406-0.4287109-0.1699219
			c-0.0947266-0.0859375-0.1416016-0.2011719-0.1416016-0.3457031c0-0.1289063,0.0429688-0.2363281,0.1298828-0.3232422
			c0.0859375-0.0859375,0.1914063-0.1289063,0.3173828-0.1289063c0.125,0,0.2587891,0.0625,0.3994141,0.1884766
			c0.1025391,0.0898438,0.1806641,0.1347656,0.2353516,0.1347656c0.0478516,0,0.1083984-0.03125,0.1826172-0.09375
			c0.1845703-0.1494141,0.4355469-0.4697266,0.7529297-0.9619141c0.3183594-0.4931641,0.5253906-0.8486328,0.6240234-1.0673828
			c-0.2431641-0.9492188-0.375-1.4521484-0.3945313-1.5068359c-0.0898438-0.2539063-0.2080078-0.4335938-0.3525391-0.5390625
			c-0.1455078-0.1054688-0.359375-0.1582031-0.6416016-0.1582031c-0.0898438,0-0.1943359,0.0039063-0.3115234,0.0117188v-0.2119141
			L109.1289063,78.5439453z"/>
	</g>
	<g id="XMLID_33_">
		<path id="XMLID_17_" class="st1" d="M120.09375,83.3847656h0.3330078v1.6201172h1.6162109v0.3291016h-1.6162109v1.6103516
			H120.09375v-1.6103516h-1.6220703v-0.3291016h1.6220703V83.3847656z"/>
	</g>
</g>
<g id="XMLID_52_">
	<g id="XMLID_53_">
		<path id="XMLID_15_" class="st1" d="M55.4960938,83.6816406l-1.6411133,5.6816406
			c0.7084961-1.0693359,1.2617188-1.7792969,1.6586914-2.1298828c0.3964844-0.3515625,0.7763672-0.5273438,1.1386719-0.5273438
			c0.1865234,0,0.3427734,0.0644531,0.4667969,0.1933594c0.125,0.1289063,0.1875,0.3007813,0.1875,0.5146484
			c0,0.2578125-0.0546875,0.5703125-0.1640625,0.9365234l-0.7119141,2.4521484
			c-0.0898438,0.2958984-0.1347656,0.4599609-0.1347656,0.4912109c0,0.0546875,0.0166016,0.0996094,0.0498047,0.1347656
			s0.0712891,0.0527344,0.1142578,0.0527344c0.0507813,0,0.1083984-0.0253906,0.1748047-0.0761719
			c0.2216797-0.171875,0.4423828-0.4101563,0.6601563-0.7138672l0.1806641,0.1113281
			c-0.1318359,0.2060547-0.3164063,0.4335938-0.5517578,0.6816406c-0.2353516,0.2470703-0.4375,0.4189453-0.6074219,0.5146484
			c-0.1689453,0.0957031-0.3203125,0.1435547-0.4521484,0.1435547c-0.1445313,0-0.2626953-0.0458984-0.3535156-0.1376953
			s-0.1376953-0.2099609-0.1376953-0.3535156c0-0.171875,0.0683594-0.4921875,0.2050781-0.9599609l0.6708984-2.3408203
			c0.0859375-0.2919922,0.1289063-0.5224609,0.1289063-0.6904297c0-0.078125-0.0244141-0.140625-0.0732422-0.1875
			s-0.1113281-0.0703125-0.1894531-0.0703125c-0.1132813,0-0.2421875,0.0429688-0.3857422,0.1289063
			c-0.2646484,0.1640625-0.5703125,0.4677734-0.9165039,0.9130859c-0.09375,0.1210938-0.4052734,0.6083984-0.9345703,1.4628906
			c-0.1635742,0.2734375-0.2978516,0.5712891-0.402832,0.8955078l-0.3740234,1.1992188h-0.8759766l1.9213867-6.6943359
			l0.2045898-0.7255859c0-0.1005859-0.0419922-0.1904297-0.1254883-0.2685547
			c-0.0839844-0.078125-0.1860352-0.1171875-0.3066406-0.1171875c-0.0703125,0-0.1772461,0.0117188-0.3212891,0.0351563
			l-0.1225586,0.0175781v-0.2285156L55.4960938,83.6816406z"/>
	</g>
</g>
<line id="XMLID_28_" class="st3" x1="46.7980423" y1="77.6666641" x2="46.7980423" y2="81.4151535"/>
<line id="XMLID_54_" class="st3" x1="62.7111664" y1="77.6666641" x2="62.7111664" y2="81.4151535"/>
<g id="XMLID_55_">
	<g id="XMLID_63_">
		<g id="XMLID_64_">
			<polygon id="XMLID_65_" points="56.9908752,79.8579407 56.9908752,81.0739746 62.7111511,79.5422363 56.9908752,78.007843 
				56.9908752,79.2239685 56.5681152,79.2239685 53.8333435,79.2239685 53.8333435,79.8579407 56.5681152,79.8579407 			"/>
		</g>
	</g>
</g>
<g id="XMLID_56_">
	<g id="XMLID_68_">
		<g id="XMLID_69_">
			<polygon id="XMLID_70_" points="52.5183296,79.223877 52.5183296,78.007843 46.7980537,79.5395813 52.5183296,81.0739746 
				52.5183296,79.8578491 52.9410896,79.8578491 55.6758614,79.8578491 55.6758614,79.223877 52.9410896,79.223877 			"/>
		</g>
	</g>
</g>
<g id="XMLID_11_">
</g>
<g id="XMLID_77_">
</g>
<g id="XMLID_78_">
</g>
<g id="XMLID_79_">
</g>
<g id="XMLID_80_">
</g>
<g id="XMLID_81_">
</g>
</svg>
